<?xml version="1.0" encoding="iso-8859-1"?>
<!-- Uploaded to: SVG Repo, www.svgrepo.com, Generator: SVG Repo Mixer Tools -->
<svg height="800px" width="800px" version="1.1" id="Layer_1" xmlns="http://www.w3.org/2000/svg" xmlns:xlink="http://www.w3.org/1999/xlink" 
	 viewBox="0 0 503.689 503.689" xml:space="preserve">
<g transform="translate(1 1)">
	<path style="fill:#ECF4F7;" d="M459.169,378.738c-21.333,27.307-45.227,46.08-67.413,57.173c-3.413-3.413-5.12-5.973-5.12-5.973
		s-8.533,17.067-34.133,17.067s-34.133-17.067-34.133-17.067s-8.533,17.067-34.133,17.067s-34.133-17.067-34.133-17.067
		s-8.533,17.067-34.133,17.067s-34.133-17.067-34.133-17.067s-8.533,17.067-34.133,17.067s-34.133-17.067-34.133-17.067
		s-8.533,17.067-34.133,17.067s-34.133-17.067-34.133-17.067s-0.853,2.56-3.413,5.12c-16.213-12.8-31.573-34.133-36.693-56.32h0.853
		"/>
	<g>
		<path style="fill:#80D6FA;" d="M80.289,447.004c25.6,0,34.133-17.067,34.133-17.067s8.533,17.067,34.133,17.067
			s34.133-17.067,34.133-17.067s8.533,17.067,34.133,17.067s34.133-17.067,34.133-17.067s8.533,17.067,34.133,17.067
			s34.133-17.067,34.133-17.067s8.533,17.067,34.133,17.067s34.133-17.067,34.133-17.067s1.707,2.56,5.12,5.973
			c5.12,5.12,14.507,11.093,29.013,11.093c25.6,0,34.133-17.067,34.133-17.067s8.533,17.067,34.133,17.067
			c2.56,0,5.973,0,8.533-0.853v51.2c-2.56,0.853-5.12,0.853-8.533,0.853c-25.6,0-34.133-17.067-34.133-17.067
			s-8.533,17.067-34.133,17.067s-34.133-17.067-34.133-17.067s-8.533,17.067-34.133,17.067s-34.133-17.067-34.133-17.067
			s-8.533,17.067-34.133,17.067s-34.133-17.067-34.133-17.067s-8.533,17.067-34.133,17.067s-34.133-17.067-34.133-17.067
			s-8.533,17.067-34.133,17.067s-34.133-17.067-34.133-17.067s-8.533,17.067-34.133,17.067s-34.133-17.067-34.133-17.067
			s-8.533,17.067-34.133,17.067c-3.413,0-5.973,0-8.533-0.853v-51.2c2.56,0.853,5.12,0.853,8.533,0.853
			c16.213,0,25.6-6.827,30.72-11.947c2.56-2.56,3.413-5.12,3.413-5.12S54.689,447.004,80.289,447.004"/>
		<path style="fill:#80D6FA;" d="M310.689,191.004c0,42.667-34.133,85.333-85.333,85.333h-34.133V3.271
			C191.222,3.271,310.689,71.538,310.689,191.004"/>
	</g>
	<path style="fill:#FF7474;" d="M459.169,378.738c14.507-18.773,28.16-40.96,39.253-68.267h-102.4
		c-9.387,0-17.067,8.533-17.067,8.533l-16.213,25.6h-171.52H3.489v17.067c0,5.973,0.853,11.947,2.56,17.067h0.853H459.169z"/>
</g>
<path style="fill:#51565F;" d="M490.889,503.471c-18.773,0-29.013-8.533-34.133-13.653c-5.12,5.973-15.36,13.653-34.133,13.653
	s-29.013-8.533-34.133-13.653c-5.12,5.973-15.36,13.653-34.133,13.653s-29.013-8.533-34.133-13.653
	c-5.12,5.973-15.36,13.653-34.133,13.653c-18.773,0-29.013-8.533-34.133-13.653c-5.12,5.973-15.36,13.653-34.133,13.653
	s-29.013-8.533-34.133-13.653c-5.12,5.973-15.36,13.653-34.133,13.653c-18.773,0-29.013-8.533-34.133-13.653
	c-5.12,5.973-15.36,13.653-34.133,13.653s-29.013-8.533-34.133-13.653c-5.12,5.973-15.36,13.653-34.133,13.653
	c-3.413,0-5.973,0-9.387-0.853c-2.56,0-4.267-2.56-3.413-5.12c0-2.56,2.56-4.267,5.12-3.413c2.56,0.853,5.12,0.853,7.68,0.853
	c22.187,0,29.867-14.507,30.72-14.507c0.853-1.707,1.707-2.56,3.413-2.56c1.707,0,3.413,0.853,3.413,2.56
	c0,0.853,7.68,14.507,30.72,14.507s29.867-14.507,30.72-14.507c0.853-1.707,2.56-2.56,3.413-2.56c1.707,0,3.413,0.853,3.413,2.56
	c0,0.853,7.68,14.507,30.72,14.507s29.867-14.507,30.72-14.507c0.853-1.707,2.56-2.56,3.413-2.56c1.707,0,3.413,0.853,3.413,2.56
	c0,0.853,7.68,14.507,30.72,14.507s29.867-14.507,30.72-14.507c0.853-1.707,1.707-2.56,3.413-2.56s3.413,0.853,3.413,2.56
	c0,0.853,7.68,14.507,30.72,14.507c23.04,0,29.867-14.507,30.72-14.507c0.853-1.707,2.56-2.56,3.413-2.56l0,0
	c1.707,0,3.413,0.853,3.413,2.56c0,0.853,7.68,14.507,30.72,14.507s29.867-14.507,30.72-14.507c0.853-1.707,2.56-2.56,3.413-2.56
	l0,0c1.707,0,3.413,0.853,3.413,2.56c0,0.853,7.68,14.507,30.72,14.507s29.867-14.507,30.72-14.507
	c0.853-1.707,2.56-1.707,3.413-2.56c1.707,0,3.413,0.853,3.413,2.56c0,0.853,7.68,14.507,30.72,14.507c2.56,0,5.12,0,7.68-0.853
	c2.56,0,4.267,0.853,5.12,3.413c0,2.56-0.853,4.267-3.413,5.12C496.862,503.471,494.302,503.471,490.889,503.471z M64.222,452.271
	c-0.853,0-0.853,0-1.707,0c-28.16-9.387-62.293-51.2-62.293-89.6v-17.067c0-2.56,1.707-4.267,4.267-4.267h183.467V4.271
	c0-1.707,0.853-2.56,1.707-3.413c1.707-0.853,2.56-0.853,4.267,0c0.853,0.853,122.027,70.827,122.027,191.147
	c0,42.667-34.133,89.6-89.6,89.6c-2.56,0-4.267-1.707-4.267-4.267c0-2.56,1.707-4.267,4.267-4.267
	c50.347,0,81.067-41.813,81.067-81.067c0-99.84-86.187-163.84-110.933-180.053v329.387h132.267c2.56,0,4.267,1.707,4.267,4.267v64
	c12.8-1.707,23.04-11.947,25.6-25.6h-4.267c-2.56,0-4.267-1.707-4.267-4.267s1.707-4.267,4.267-4.267h17.067
	c2.56,0,4.267,1.707,4.267,4.267s-1.707,4.267-4.267,4.267h-4.267c-2.56,18.773-18.773,34.133-38.4,34.133
	c-19.627,0-35.84-15.36-38.4-34.133h-4.267c-2.56,0-4.267-1.707-4.267-4.267s1.707-4.267,4.267-4.267h17.067
	c2.56,0,4.267,1.707,4.267,4.267s-1.707,4.267-4.267,4.267h-4.267c1.707,12.8,11.947,23.04,25.6,25.6v-59.733H8.755v12.8
	c0,4.267,0.853,8.533,0.853,12.8h242.347c2.56,0,4.267,1.707,4.267,4.267s-1.707,4.267-4.267,4.267H12.169
	c9.387,29.013,34.987,53.76,53.76,59.733c2.56,0.853,3.413,3.413,2.56,5.12C67.635,451.418,65.929,452.271,64.222,452.271z
	 M362.889,452.271c-1.707,0-3.413-1.707-4.267-3.413c-0.853-2.56,0.853-4.267,3.413-5.12c25.6-5.12,59.733-23.893,89.6-59.733
	h-46.933c-2.56,0-4.267-1.707-4.267-4.267s1.707-4.267,4.267-4.267h52.907c12.8-16.213,23.893-36.693,34.133-59.733h-94.72
	c-7.68,0-13.653,6.827-13.653,6.827l-17.067,24.747c-1.707,1.707-4.267,2.56-5.973,0.853c-1.707-1.707-2.56-4.267-0.853-5.973
	l17.067-25.6c0.853-0.853,9.387-10.24,20.48-10.24h102.4c1.707,0,2.56,0.853,3.413,1.707c0.853,0.853,0.853,2.56,0,4.267
	C467.849,401.924,405.555,443.738,362.889,452.271C363.742,452.271,362.889,452.271,362.889,452.271z M141.022,179.204H72.755
	c-2.56,0-4.267-1.707-4.267-4.267c0-2.56,1.707-4.267,4.267-4.267h68.267c2.56,0,4.267,1.707,4.267,4.267
	C145.289,177.498,143.582,179.204,141.022,179.204z M141.022,128.004h-102.4c-2.56,0-4.267-1.707-4.267-4.267
	s1.707-4.267,4.267-4.267h102.4c2.56,0,4.267,1.707,4.267,4.267S143.582,128.004,141.022,128.004z M141.022,76.804h-51.2
	c-2.56,0-4.267-1.707-4.267-4.267s1.707-4.267,4.267-4.267h51.2c2.56,0,4.267,1.707,4.267,4.267S143.582,76.804,141.022,76.804z"/>
</svg>