<?xml version="1.0" encoding="iso-8859-1"?>
<!-- Uploaded to: SVG Repo, www.svgrepo.com, Generator: SVG Repo Mixer Tools -->
<svg height="800px" width="800px" version="1.1" id="Layer_1" xmlns="http://www.w3.org/2000/svg" xmlns:xlink="http://www.w3.org/1999/xlink" 
	 viewBox="0 0 504.542 504.542" xml:space="preserve">
<g transform="translate(1 9)">
	<path style="fill:#80D6FA;" d="M293.622,175.004l25.6,110.933H20.555V175.004c0-4.267,4.267-8.533,8.533-8.533h110.933h51.2h93.867
		C290.209,166.471,292.769,170.738,293.622,175.004"/>
	<g>
		<path style="fill:#ECF4F7;" d="M344.822,320.071h153.6c0,67.413-41.813,101.547-84.48,118.613
			c-19.627-2.56-26.453-16.213-26.453-16.213s-8.533,17.067-34.133,17.067s-34.133-17.067-34.133-17.067
			s-8.533,17.067-34.133,17.067s-34.133-17.067-34.133-17.067s-8.533,17.067-34.133,17.067s-34.133-17.067-34.133-17.067
			s-8.533,17.067-34.133,17.067s-34.133-17.067-34.133-17.067s-8.533,17.067-34.133,17.067s-34.133-17.067-34.133-17.067
			s-2.56,4.267-7.68,8.533c-23.893-13.653-34.987-28.16-34.987-59.733v-51.2h307.2H344.822L344.822,320.071z"/>
		<polygon style="fill:#ECF4F7;" points="140.022,166.471 191.222,166.471 191.222,64.071 140.022,64.071 		"/>
	</g>
	<path style="fill:#AAB1BA;" d="M71.755,200.604c9.387,0,17.067,7.68,17.067,17.067s-7.68,17.067-17.067,17.067
		s-17.067-7.68-17.067-17.067S62.369,200.604,71.755,200.604z M242.422,200.604c9.387,0,17.067,7.68,17.067,17.067
		s-7.68,17.067-17.067,17.067c-9.387,0-17.067-7.68-17.067-17.067S233.035,200.604,242.422,200.604z M157.089,200.604
		c9.387,0,17.067,7.68,17.067,17.067s-7.68,17.067-17.067,17.067s-17.067-7.68-17.067-17.067S147.702,200.604,157.089,200.604z"/>
	<path style="fill:#80D6FA;" d="M413.942,438.684c2.56,0,5.12,0.853,7.68,0.853c25.6,0,34.133-17.067,34.133-17.067
		s8.533,17.067,34.133,17.067c3.413,0,5.973,0,8.533-0.853v51.2c-2.56,0.853-5.12,0.853-8.533,0.853
		c-25.6,0-34.133-17.067-34.133-17.067s-8.533,17.067-34.133,17.067s-34.133-17.067-34.133-17.067s-8.533,17.067-34.133,17.067
		s-34.133-17.067-34.133-17.067s-8.533,17.067-34.133,17.067s-34.133-17.067-34.133-17.067s-8.533,17.067-34.133,17.067
		s-34.133-17.067-34.133-17.067s-8.533,17.067-34.133,17.067s-34.133-17.067-34.133-17.067s-8.533,17.067-34.133,17.067
		s-34.133-17.067-34.133-17.067s-8.533,17.067-34.133,17.067c-3.413,0-5.973,0-8.533-0.853v-51.2c2.56,0.853,5.12,0.853,8.533,0.853
		c12.8,0,21.333-4.267,26.453-8.533s7.68-8.533,7.68-8.533s8.533,17.067,34.133,17.067s34.133-17.067,34.133-17.067
		s8.533,17.067,34.133,17.067s34.133-17.067,34.133-17.067s8.533,17.067,34.133,17.067s34.133-17.067,34.133-17.067
		s8.533,17.067,34.133,17.067s34.133-17.067,34.133-17.067s8.533,17.067,34.133,17.067s34.133-17.067,34.133-17.067
		S394.315,436.124,413.942,438.684"/>
	<path style="fill:#FF7474;" d="M3.489,320.071v-34.133h17.067h358.4l25.6-25.6c0,0,7.68-8.533,17.067-8.533h76.8v68.267H3.489z"/>
</g>
<path style="fill:#51565F;" d="M490.889,504.004c-18.773,0-29.013-8.533-34.133-13.653c-5.12,5.973-15.36,13.653-34.133,13.653
	s-29.013-8.533-34.133-13.653c-5.12,5.973-15.36,13.653-34.133,13.653s-29.013-8.533-34.133-13.653
	c-5.12,5.973-15.36,13.653-34.133,13.653c-18.773,0-29.013-8.533-34.133-13.653c-5.12,5.973-15.36,13.653-34.133,13.653
	s-29.013-8.533-34.133-13.653c-5.12,5.973-15.36,13.653-34.133,13.653c-18.773,0-29.013-8.533-34.133-13.653
	c-5.12,5.973-15.36,13.653-34.133,13.653s-29.013-8.533-34.133-13.653c-5.12,5.973-15.36,13.653-34.133,13.653
	c-3.413,0-5.973,0-9.387-0.853c-2.56,0-4.267-2.56-3.413-5.12c0-2.56,2.56-4.267,5.12-3.413c2.56,0.853,5.12,0.853,7.68,0.853
	c22.187,0,29.867-14.507,30.72-14.507c0.853-1.707,1.707-2.56,3.413-2.56c1.707,0,3.413,0.853,3.413,2.56
	c0,0.853,7.68,14.507,30.72,14.507s29.867-14.507,30.72-14.507c0.853-1.707,2.56-2.56,3.413-2.56c1.707,0,3.413,0.853,3.413,2.56
	c0,0.853,7.68,14.507,30.72,14.507s29.867-14.507,30.72-14.507c0.853-1.707,2.56-2.56,3.413-2.56c1.707,0,3.413,0.853,3.413,2.56
	c0,0.853,7.68,14.507,30.72,14.507s29.867-14.507,30.72-14.507c0.853-1.707,1.707-2.56,3.413-2.56s3.413,0.853,3.413,2.56
	c0,0.853,7.68,14.507,30.72,14.507c23.04,0,29.867-14.507,30.72-14.507c0.853-1.707,2.56-2.56,3.413-2.56l0,0
	c1.707,0,3.413,0.853,3.413,2.56c0,0.853,7.68,14.507,30.72,14.507s29.867-14.507,30.72-14.507c0.853-1.707,2.56-2.56,3.413-2.56
	l0,0c1.707,0,3.413,0.853,3.413,2.56c0,0.853,7.68,14.507,30.72,14.507s29.867-14.507,30.72-14.507
	c0.853-1.707,2.56-1.707,3.413-2.56c1.707,0,3.413,0.853,3.413,2.56c0,0.853,7.68,14.507,30.72,14.507c2.56,0,5.12,0,7.68-0.853
	c2.56,0,4.267,0.853,5.12,3.413c0,2.56-0.853,4.267-3.413,5.12C496.862,504.004,494.302,504.004,490.889,504.004z M414.089,452.804
	c-1.707,0-3.413-0.853-4.267-2.56c-0.853-2.56,0-4.267,2.56-5.12c53.76-21.333,81.067-58.88,82.773-110.933h-115.2
	c-2.56,0-4.267-1.707-4.267-4.267c0-2.56,1.707-4.267,4.267-4.267h115.2v-59.733h-72.533c-6.827,0-13.653,6.827-13.653,6.827
	l-25.6,25.6c-1.707,1.707-4.267,1.707-5.973,0c-1.707-1.707-1.707-4.267,0-5.973l25.6-25.6c0,0,9.387-9.387,20.48-9.387h76.8
	c2.56,0,4.267,1.707,4.267,4.267v68.267c0,58.027-30.72,100.693-87.893,123.733C414.942,452.804,414.942,452.804,414.089,452.804z
	 M55.689,452.804c-0.853,0-1.707,0-1.707-0.853c-36.693-18.773-53.76-33.28-53.76-71.68v-85.333c0-2.56,1.707-4.267,4.267-4.267
	h341.333c2.56,0,4.267,1.707,4.267,4.267v98.133c12.8-1.707,23.04-11.947,25.6-25.6h-4.267c-2.56,0-4.267-1.707-4.267-4.267
	c0-2.56,1.707-4.267,4.267-4.267h17.067c2.56,0,4.267,1.707,4.267,4.267c0,2.56-1.707,4.267-4.267,4.267h-4.267
	c-2.56,18.773-18.773,34.133-38.4,34.133c-19.627,0-35.84-15.36-38.4-34.133h-4.267c-2.56,0-4.267-1.707-4.267-4.267
	c0-2.56,1.707-4.267,4.267-4.267h17.067c2.56,0,4.267,1.707,4.267,4.267c0,2.56-1.707,4.267-4.267,4.267h-4.267
	c1.707,12.8,11.947,23.04,25.6,25.6v-93.867H8.755v25.6h302.933c2.56,0,4.267,1.707,4.267,4.267c0,2.56-1.707,4.267-4.267,4.267
	H8.755v46.933c0,34.133,14.507,46.933,48.64,64.853c1.707,0.853,2.56,3.413,1.707,5.973
	C59.102,451.951,57.395,452.804,55.689,452.804z M311.689,265.071c-1.707,0-3.413-1.707-4.267-3.413l-17.067-76.8
	c0-0.853-0.853-5.12-4.267-5.12h-256c-2.56,0-4.267,1.707-4.267,4.267v76.8c0,2.56-1.707,4.267-4.267,4.267
	s-4.267-1.707-4.267-4.267v-76.8c0-6.827,5.973-12.8,12.8-12.8h256c5.973,0,11.093,4.267,12.8,11.947l17.067,76.8
	c0.853,2.56-0.853,4.267-3.413,5.12H311.689z M243.422,248.004c-11.947,0-21.333-9.387-21.333-21.333
	c0-11.947,9.387-21.333,21.333-21.333c11.947,0,21.333,9.387,21.333,21.333C264.755,238.618,255.369,248.004,243.422,248.004z
	 M243.422,213.871c-6.827,0-12.8,5.973-12.8,12.8c0,6.827,5.973,12.8,12.8,12.8c6.827,0,12.8-5.973,12.8-12.8
	C256.222,219.844,250.249,213.871,243.422,213.871z M158.089,248.004c-11.947,0-21.333-9.387-21.333-21.333
	c0-11.947,9.387-21.333,21.333-21.333s21.333,9.387,21.333,21.333C179.422,238.618,170.035,248.004,158.089,248.004z
	 M158.089,213.871c-6.827,0-12.8,5.973-12.8,12.8c0,6.827,5.973,12.8,12.8,12.8s12.8-5.973,12.8-12.8
	C170.889,219.844,164.915,213.871,158.089,213.871z M72.755,248.004c-11.947,0-21.333-9.387-21.333-21.333
	c0-11.947,9.387-21.333,21.333-21.333s21.333,9.387,21.333,21.333C94.089,238.618,84.702,248.004,72.755,248.004z M72.755,213.871
	c-6.827,0-12.8,5.973-12.8,12.8c0,6.827,5.973,12.8,12.8,12.8c6.827,0,12.8-5.973,12.8-12.8
	C85.555,219.844,79.582,213.871,72.755,213.871z M192.222,145.604c-2.56,0-4.267-1.707-4.267-4.267v-64h-42.667v64
	c0,2.56-1.707,4.267-4.267,4.267c-2.56,0-4.267-1.707-4.267-4.267V73.071c0-2.56,1.707-4.267,4.267-4.267h51.2
	c2.56,0,4.267,1.707,4.267,4.267v68.267C196.489,143.898,194.782,145.604,192.222,145.604z M175.155,43.204h-17.067
	c-2.56,0-4.267-1.707-4.267-4.267s1.707-4.267,4.267-4.267h17.067c2.56,0,4.267,1.707,4.267,4.267S177.715,43.204,175.155,43.204z
	 M106.889,43.204H89.822c-2.56,0-4.267-1.707-4.267-4.267s1.707-4.267,4.267-4.267h17.067c2.56,0,4.267,1.707,4.267,4.267
	S109.449,43.204,106.889,43.204z M158.089,9.071h-51.2c-2.56,0-4.267-1.707-4.267-4.267s1.707-4.267,4.267-4.267h51.2
	c2.56,0,4.267,1.707,4.267,4.267S160.649,9.071,158.089,9.071z M72.755,9.071H38.622c-2.56,0-4.267-1.707-4.267-4.267
	s1.707-4.267,4.267-4.267h34.133c2.56,0,4.267,1.707,4.267,4.267S75.315,9.071,72.755,9.071z"/>
</svg>